<?xml version="1.0" standalone="no"?>
<!DOCTYPE svg PUBLIC "-//W3C//DTD SVG 1.1//EN" "http://www.w3.org/Graphics/SVG/1.1/DTD/svg11.dtd" >
<svg xmlns="http://www.w3.org/2000/svg" xmlns:xlink="http://www.w3.org/1999/xlink" version="1.1">
<metadata></metadata>
<defs>
<font id="preloextralight" horiz-adv-x="1085" >
<font-face units-per-em="2048" ascent="1536" descent="-512" />
<missing-glyph horiz-adv-x="368" />
<glyph unicode="&#xfb01;" horiz-adv-x="1050" d="M55 975v43l178 6v78q0 94 25 158.5t68 102.5t103 54.5t132 16.5q47 0 133 -15.5t178 -58.5l-12 -49q-109 47 -181.5 58t-113.5 11q-152 0 -211 -70.5t-59 -209.5v-76h604v-1024h-61v975h-543v-975h-62v975h-178z" />
<glyph unicode="&#xfb02;" horiz-adv-x="1050" d="M55 975v43l176 6v78q0 94 25 158.5t69 102.5t103 54.5t131 16.5q35 0 116 -12.5t175 -53.5h47v-1368h-61v1313q-111 47 -176.5 57t-94.5 10q-147 0 -209.5 -70.5t-62.5 -209.5v-76h328v-49h-328v-975h-62v975h-176z" />
<glyph unicode="&#xfb03;" horiz-adv-x="1650" d="M55 975v43l178 6v94q0 90 15.5 150.5t46.5 97.5t80 52.5t117 15.5q31 0 67.5 -4.5t73.5 -8.5l-8 -51q-45 6 -75 8t-61 2q-59 0 -97 -17t-59.5 -51t-29.5 -83t-8 -115v-90h539v78q0 94 24.5 158.5t68.5 102.5t104.5 54.5t131.5 16.5q47 0 133 -15.5t179 -58.5l-13 -49 q-109 47 -181.5 58t-113.5 11q-152 0 -211 -70.5t-59 -209.5v-76h604v-1024h-63v975h-541v-975h-63v975h-539v-975h-62v975h-178z" />
<glyph unicode="&#xfb04;" horiz-adv-x="1650" d="M55 975v43l178 6v94q0 90 15.5 150.5t46.5 97.5t80 52.5t117 15.5q31 0 67.5 -4.5t73.5 -8.5l-8 -51q-45 6 -75 8t-61 2q-59 0 -97 -17t-59.5 -51t-29.5 -83t-8 -115v-90h539v78q0 96 24.5 159.5t68.5 102.5t104.5 54.5t131.5 15.5q33 0 114 -12.5t175 -53.5h49v-1368 h-63v1313q-111 47 -176.5 57t-94.5 10q-147 0 -208.5 -70.5t-61.5 -209.5v-76h328v-49h-328v-975h-63v975h-539v-975h-62v975h-178z" />
<glyph horiz-adv-x="0" />
<glyph horiz-adv-x="682" />
<glyph unicode=" "  horiz-adv-x="368" />
<glyph unicode="&#x09;" horiz-adv-x="368" />
<glyph unicode="&#xa0;" horiz-adv-x="368" />
<glyph unicode="!" horiz-adv-x="364" d="M152 0v221h61v-221h-61zM152 1434h61l-2 -983h-57z" />
<glyph unicode="&#x22;" horiz-adv-x="774" d="M152 1393h61l-6 -232h-51zM561 1393h62l-7 -232h-51z" />
<glyph unicode="#" horiz-adv-x="1255" d="M160 272l4 47h205l41 383h-205l4 48h205l28 274h50l-29 -274h379l28 274h50l-31 -274h205l-4 -48h-205l-41 -383h205l-5 -47h-204l-29 -272h-49l29 272h-379l-29 -272h-49l31 272h-205zM418 319h379l39 383h-379z" />
<glyph unicode="$" horiz-adv-x="1249" d="M152 111l28 49q51 -33 110.5 -56.5t120 -38t118 -20.5t106.5 -6q113 0 188.5 29.5t121.5 75.5t66.5 102.5t20.5 109.5q0 84 -43 140.5t-104.5 93.5t-128 56.5t-111.5 31.5q-78 18 -157.5 49t-145.5 79t-107.5 114.5t-41.5 154.5t32.5 151.5t89 104.5t134 60.5t169.5 21.5 v184h37v-184q129 -4 236.5 -32.5t183.5 -75.5l-26 -52q-109 59 -213.5 80t-200.5 21q-113 0 -185.5 -23.5t-115.5 -62.5t-59.5 -89.5t-16.5 -103.5q0 -84 48 -143.5t114.5 -99t138.5 -62t119 -35.5q76 -16 151.5 -43.5t135 -72t96.5 -109t37 -152.5q0 -90 -33 -159.5 t-91.5 -116.5t-139 -72.5t-179.5 -27.5v-187h-37v185q-135 4 -258.5 37.5t-207.5 93.5z" />
<glyph unicode="%" horiz-adv-x="1556" d="M115 1096q0 123 65.5 193.5t192.5 70.5q125 0 190.5 -70.5t65.5 -193.5t-65.5 -194t-190.5 -71q-127 0 -192.5 71t-65.5 194zM158 1096q0 -106 54 -168t161 -62q106 0 160.5 61.5t54.5 168.5q0 106 -54.5 167.5t-160.5 61.5t-160.5 -61.5t-54.5 -167.5zM377 0l758 1393 h45l-758 -1393h-45zM928 297q0 123 65.5 193.5t190.5 70.5q127 0 192.5 -70.5t65.5 -193.5t-65.5 -193.5t-192.5 -70.5q-125 0 -190.5 70.5t-65.5 193.5zM969 297q0 -106 54 -167.5t161 -61.5q106 0 160.5 61t54.5 168q0 106 -54.5 167.5t-160.5 61.5t-160.5 -61.5 t-54.5 -167.5z" />
<glyph unicode="&#x26;" horiz-adv-x="1443" d="M141 342q0 61 17.5 115.5t60.5 103.5t113.5 96.5t179.5 92.5q-23 25 -56.5 59.5t-64.5 78.5t-53.5 96t-22.5 114q0 84 31 143t80 98t111.5 56.5t128.5 17.5q147 0 233 -74t86 -213q0 -49 -17.5 -97t-60.5 -96t-116.5 -97.5t-186.5 -98.5l479 -479q70 80 119 192.5 t72 266.5h59q-16 -121 -65 -256t-144 -246l189 -195l-43 -45l-189 197q-86 -86 -207.5 -139t-289.5 -53q-221 0 -332 101t-111 261zM207 350q0 -41 13 -95t56 -103.5t121 -83t207 -33.5q111 0 225.5 41t212.5 139l-493 498q-66 -29 -127.5 -59.5t-108.5 -72.5t-76.5 -98.5 t-29.5 -132.5zM375 1104q0 -49 15.5 -92t42 -82t61 -77t71.5 -77q70 29 134.5 63.5t114.5 78t80 95.5t30 113q0 82 -32 130.5t-75 73t-87 30.5t-66 6q-94 0 -150.5 -30.5t-87.5 -73.5t-41 -87t-10 -71z" />
<glyph unicode="'" horiz-adv-x="364" d="M152 1393h61l-6 -232h-51z" />
<glyph unicode="(" horiz-adv-x="675" d="M178 696q0 256 91 511t247 472h49q-164 -260 -244.5 -497.5t-80.5 -485.5q0 -246 80.5 -484.5t244.5 -498.5h-49q-156 217 -247 473t-91 510z" />
<glyph unicode=")" horiz-adv-x="675" d="M111 -287q164 260 244.5 499t80.5 484q0 248 -81 485.5t-244 497.5h49q156 -217 247 -472t91 -511q0 -254 -91.5 -510t-246.5 -473h-49z" />
<glyph unicode="*" horiz-adv-x="839" d="M84 1141l14 43l303 -66l-4 275h45l-4 -275l301 66l15 -43l-308 -56l199 -256l-35 -26l-192 262l-191 -262l-34 26l198 256z" />
<glyph unicode="+" horiz-adv-x="1024" d="M152 516v53h333v334h54v-334h333v-53h-333v-334h-54v334h-333z" />
<glyph unicode="," horiz-adv-x="364" d="M143 -266l25 266h-18v219h61v-219l-37 -266h-31z" />
<glyph unicode="-" horiz-adv-x="1024" d="M152 516v53h720v-53h-720z" />
<glyph unicode="." horiz-adv-x="364" d="M152 0v221h61v-221h-61z" />
<glyph unicode="/" horiz-adv-x="1105" d="M145 0l758 1393h58l-758 -1393h-58z" />
<glyph unicode="0" horiz-adv-x="1208" d="M152 707q0 143 20.5 271t70.5 224t138 153.5t223 57.5t223 -57.5t138.5 -153.5t71 -224t20.5 -271q0 -147 -20.5 -278.5t-71 -232t-138.5 -158.5t-223 -58t-223 58t-138 158.5t-70.5 231.5t-20.5 279zM215 707q0 -123 15.5 -244t58.5 -216t118.5 -154.5t196.5 -59.5 t197 59.5t119 154.5t58 216t15 244t-15 240.5t-58 208.5t-119 147.5t-197 56.5t-196.5 -56.5t-118.5 -147.5t-58.5 -209t-15.5 -240z" />
<glyph unicode="1" horiz-adv-x="763" d="M106 1126q61 33 124 68t123.5 70.5t114.5 71.5t97 67h41v-1403h-61v1319l-412 -244z" />
<glyph unicode="2" horiz-adv-x="1126" d="M152 0v68q246 170 392 313t223 259t100.5 204t23.5 147q0 123 -40 194.5t-96.5 109.5t-115.5 49.5t-96 11.5q-86 0 -173 -19.5t-200 -76.5l-18 51q92 47 185 74.5t216 27.5q106 0 182 -33.5t125 -89t71.5 -128t22.5 -152.5q0 -215 -169 -449.5t-545 -499.5v-4h735v-57 h-823z" />
<glyph unicode="3" horiz-adv-x="1167" d="M152 74l22 49q162 -90 387 -90q137 0 216 36.5t118 88t48 106.5t9 92q0 63 -23.5 121t-74.5 101t-130 67.5t-192 24.5h-159v53h157q92 0 164 27.5t121 73.5t74.5 104.5t25.5 120.5q0 39 -11 92t-48 102t-107.5 83t-187.5 34q-100 0 -187 -24.5t-163 -65.5l-21 49 q80 47 180.5 70.5t198.5 23.5q205 0 305.5 -97t100.5 -263q0 -72 -24.5 -129.5t-65.5 -100.5t-94.5 -73.5t-110.5 -44.5v-5q74 -10 136.5 -38.5t106.5 -73.5t68.5 -104.5t24.5 -129.5q0 -178 -108.5 -276t-342.5 -98q-113 0 -222.5 21.5t-190.5 72.5z" />
<glyph unicode="4" horiz-adv-x="1208" d="M129 412v53q84 92 175 202.5t178 230.5t164 246t132 249h82v-928h217v-53h-217v-412h-61v412h-670zM197 465h602v844h-4q-55 -113 -124 -223.5t-147 -217t-160.5 -208t-166.5 -195.5z" />
<glyph unicode="5" horiz-adv-x="1167" d="M152 82l18 49q113 -59 201 -78.5t180 -19.5q86 0 159.5 25.5t128 76.5t84 126t29.5 171q0 66 -18.5 132.5t-59 119.5t-108.5 87t-168 34q-104 0 -186 -48t-148 -143l-53 7l43 772h680v-58h-627l-41 -655l4 -2q55 78 142.5 130t201.5 52q193 0 297.5 -112.5t104.5 -311.5 q0 -109 -34 -193.5t-94.5 -143t-145.5 -89t-189 -30.5q-121 0 -215 27.5t-186 74.5z" />
<glyph unicode="6" horiz-adv-x="1167" d="M150 614q0 223 43 377t116.5 247t173 134t211.5 41q100 0 160.5 -14.5t118.5 -32.5l-10 -49q-72 23 -131.5 32t-135.5 9q-106 0 -183 -36t-130 -94.5t-86 -131t-51.5 -145t-25.5 -140.5t-9 -113l4 -2q68 104 165 170t214 66q201 0 311.5 -125t110.5 -356q0 -111 -33 -198 t-89 -148.5t-132 -93t-162 -31.5q-139 0 -227 54t-137.5 143t-67.5 203t-18 234zM215 631q0 -117 13.5 -224.5t54.5 -190.5t114.5 -133t194.5 -50q72 0 137.5 26.5t114.5 80t78.5 131t29.5 180.5q0 68 -15 142.5t-56 137t-114 103t-185 40.5q-113 0 -208.5 -69.5 t-158.5 -173.5z" />
<glyph unicode="7" horiz-adv-x="1024" d="M131 1335v58h762v-50q-82 -129 -171 -288.5t-168 -333.5t-141.5 -358.5t-93.5 -362.5h-65q23 158 84 340t142 361.5t172 344t171 285.5v4h-692z" />
<glyph unicode="8" horiz-adv-x="1208" d="M152 340q0 80 32.5 141.5t86 107.5t124 78.5t144.5 57.5v4q-74 25 -136.5 55.5t-109.5 72.5t-73.5 97.5t-26.5 126.5q0 152 110.5 242t302.5 90q190 0 300 -90t110 -240q0 -72 -25.5 -124t-71 -92t-110 -71.5t-139.5 -60.5v-4q78 -29 148.5 -63.5t123.5 -79.5t84 -104.5 t31 -139.5q0 -164 -114 -264t-341 -100t-338.5 99t-111.5 261zM215 344q0 -61 19.5 -117.5t65.5 -99.5t121 -69.5t185 -26.5q111 0 184.5 25.5t118.5 68.5t64.5 99.5t19.5 115.5q0 78 -34.5 134t-91 98t-127 71.5t-142.5 56.5q-72 -23 -140.5 -53.5t-121.5 -72.5t-87 -98 t-34 -132zM254 1079q0 -66 27.5 -116t76 -87.5t112.5 -66.5t140 -49q72 25 135.5 53.5t109.5 65t72.5 85t26.5 111.5q0 92 -37.5 148.5t-92 87t-116 41t-106.5 10.5t-104.5 -10.5t-113.5 -41t-92 -86t-38 -145.5z" />
<glyph unicode="9" horiz-adv-x="1167" d="M150 942q0 111 32.5 198t89 148.5t133 93t162.5 31.5q139 0 227.5 -54t137.5 -143.5t66.5 -204t17.5 -233.5q0 -225 -43 -377.5t-117 -247t-173 -134t-210 -39.5q-100 0 -161.5 13t-118.5 32l10 49q72 -20 131 -30.5t135 -10.5q106 0 183 35.5t130.5 94t86 131.5 t51 145.5t25.5 139t9 113.5l-4 2q-68 -104 -165 -168.5t-214 -64.5q-201 0 -311 125t-110 356zM215 942q0 -70 15.5 -144.5t56.5 -137t112.5 -103.5t186.5 -41q111 0 206 71t158 173q0 84 -6 162q-8 90 -29.5 169.5t-64.5 139t-110.5 93.5t-166.5 34q-72 0 -136 -26.5 t-113.5 -80t-79 -131.5t-29.5 -178z" />
<glyph unicode=":" horiz-adv-x="364" d="M152 0v221h61v-221h-61zM152 721v221h61v-221h-61z" />
<glyph unicode=";" horiz-adv-x="364" d="M143 -266l25 266h-18v219h61v-219l-37 -266h-31zM150 721v221h61v-221h-61z" />
<glyph unicode="&#x3c;" horiz-adv-x="983" d="M152 489v46l679 348v-56l-616 -315l616 -315v-56z" />
<glyph unicode="=" horiz-adv-x="1024" d="M152 311v54h720v-54h-720zM152 721v53h720v-53h-720z" />
<glyph unicode="&#x3e;" horiz-adv-x="983" d="M152 141v56l616 315l-616 315v56l679 -348v-46z" />
<glyph unicode="?" horiz-adv-x="983" d="M131 1335q82 33 169 55.5t183 22.5q111 0 181.5 -29.5t112.5 -78t58.5 -107.5t16.5 -119q0 -94 -30.5 -157.5t-77 -109.5t-100.5 -80t-100 -68.5t-77 -74.5t-31 -97v-62h-57v62q0 66 30.5 111.5t75.5 81.5t98.5 68.5t98.5 74.5t75.5 100.5t30.5 144.5q0 98 -36.5 154.5 t-88 84t-106.5 35t-92 7.5q-51 0 -132 -15.5t-183 -56.5zM377 0v221h61v-221h-61z" />
<glyph unicode="@" horiz-adv-x="1699" d="M61 518q0 178 62.5 328.5t173.5 259t262.5 169t329.5 60.5q156 0 292 -48t237.5 -136t160.5 -211t59 -272q0 -109 -32.5 -206t-97 -170t-161 -115t-223.5 -42h-55v80h-4q-57 -47 -122.5 -70.5t-149.5 -23.5q-119 0 -193 54t-74 163q0 119 80 179.5t256 60.5h207v104 q0 51 -10 91t-36 68.5t-68 44t-105 15.5q-45 0 -115.5 -11t-144.5 -34l-12 39q66 23 141.5 36t140.5 13q63 0 112.5 -12t82 -42t49 -80t16.5 -126v-506q143 0 235.5 51.5t145.5 126t72.5 158.5t19.5 152q0 143 -56 259.5t-153.5 197.5t-225.5 125t-269 44q-170 0 -313.5 -56 t-248 -157.5t-163 -244t-58.5 -316.5q0 -160 54.5 -293t150 -228t226.5 -148.5t284 -53.5l-4 -41q-166 0 -305 58.5t-238.5 161t-156 241.5t-56.5 303zM580 342q0 -78 55 -128t172 -50q102 0 165.5 32.5t96.5 61.5v283h-201q-82 0 -137 -13.5t-89 -39t-48 -62.5t-14 -84z " />
<glyph unicode="A" horiz-adv-x="1331" d="M111 0l522 1403h82l506 -1403h-72l-148 410h-667l-156 -410h-67zM350 467h637l-311 856h-2z" />
<glyph unicode="B" horiz-adv-x="1249" d="M172 0v1393h524q94 0 166 -27t120 -74t71.5 -110.5t23.5 -139.5q0 -127 -61.5 -215t-190.5 -116v-4q150 -27 221.5 -121t71.5 -224q0 -164 -95 -263t-286 -99h-565zM236 59h493q156 0 240 79t84 231q0 137 -88 223t-271 86h-458v-619zM236 737h454q158 0 240 75t82 222 q0 135 -82 217t-240 82h-454v-596z" />
<glyph unicode="C" horiz-adv-x="1269" d="M152 707q0 143 22.5 271t83.5 224t169 153.5t280 57.5q111 0 223 -15.5t227 -47.5l-14 -58q-76 18 -136.5 30.5t-110.5 20t-95 9.5t-90 2q-158 0 -254.5 -55.5t-149.5 -145.5t-71.5 -206.5t-18.5 -239.5q0 -131 18.5 -252t71.5 -213t149.5 -147.5t254.5 -55.5q45 0 90 2 t95 9t110.5 19.5t136.5 30.5l14 -57q-115 -33 -227.5 -48t-222.5 -15q-172 0 -280 57t-169 156.5t-83.5 231.5t-22.5 282z" />
<glyph unicode="D" horiz-adv-x="1331" d="M172 0v1393h461q158 0 263 -53.5t167.5 -146.5t89.5 -218t27 -268q0 -147 -27 -275.5t-89.5 -224.5t-167.5 -151.5t-263 -55.5h-461zM236 59h397q143 0 237.5 55.5t147.5 145.5t74.5 207t21.5 240t-21.5 236.5t-74.5 199.5t-147.5 138t-237.5 52h-397v-1274z" />
<glyph unicode="E" horiz-adv-x="1146" d="M172 0v1393h813v-60h-749v-577h657v-60h-657v-637h759v-59h-823z" />
<glyph unicode="F" horiz-adv-x="1095" d="M172 0v1393h793v-60h-729v-618h636v-60h-636v-655h-64z" />
<glyph unicode="G" horiz-adv-x="1310" d="M152 707q0 143 22.5 271t83.5 224t169 153.5t280 57.5q111 0 223 -15.5t227 -47.5l-14 -58q-76 18 -136.5 30.5t-110.5 20t-95 9.5t-90 2q-158 0 -254.5 -55.5t-149.5 -145.5t-71.5 -207t-18.5 -239q0 -131 18.5 -252t71.5 -213t149.5 -147.5t254.5 -55.5 q113 0 201.5 30.5t162.5 84.5v458h-344v60h408v-561q-35 -23 -77 -45.5t-94.5 -42t-116.5 -31.5t-144 -12q-172 0 -280 57t-169 156.5t-83.5 231.5t-22.5 282z" />
<glyph unicode="H" horiz-adv-x="1310" d="M172 0v1393h64v-637h839v637h64v-1393h-64v696h-839v-696h-64z" />
<glyph unicode="I" horiz-adv-x="407" d="M172 0v1393h64v-1393h-64z" />
<glyph unicode="J" horiz-adv-x="632" d="M47 -8l8 55q41 -6 69 -8t58 -2q125 0 170 70.5t45 214.5v1071h64v-1076q0 -98 -17.5 -163.5t-51.5 -103.5t-83 -54t-114 -16q-35 0 -73 3t-75 9z" />
<glyph unicode="K" horiz-adv-x="1259" d="M172 0v1393h64v-856l808 856h78l-524 -564l541 -829h-80l-510 778l-313 -329v-449h-64z" />
<glyph unicode="L" horiz-adv-x="1105" d="M172 0v1393h64v-1334h739v-59h-803z" />
<glyph unicode="M" horiz-adv-x="1638" d="M172 0v1393h80l567 -1284h4l563 1284h80v-1393h-63v1257h-4l-555 -1257h-51l-553 1257h-4v-1257h-64z" />
<glyph unicode="N" horiz-adv-x="1331" d="M172 0v1393h64l856 -1270h4v1270h63v-1393h-65l-854 1266h-4v-1266h-64z" />
<glyph unicode="O" horiz-adv-x="1413" d="M152 707q0 143 22.5 271t83.5 224t169 153.5t280 57.5t279.5 -57.5t169 -153.5t84 -224t22.5 -271q0 -147 -22.5 -278.5t-84 -232t-169 -158.5t-279.5 -58t-280 58t-169 158.5t-83.5 231.5t-22.5 279zM217 707q0 -123 17.5 -243t69.5 -215t148.5 -153.5t254.5 -58.5 t254 58.5t148 153.5t69.5 215t17.5 243t-17.5 239.5t-69.5 207.5t-148 146.5t-254 55.5t-254.5 -55.5t-148.5 -146.5t-69.5 -208t-17.5 -239z" />
<glyph unicode="P" horiz-adv-x="1228" d="M172 0v1393h543q94 0 166.5 -30t120 -80t72 -118.5t24.5 -146.5q0 -170 -95.5 -271.5t-287.5 -101.5h-479v-645h-64zM236 705h473q156 0 239.5 79.5t83.5 233.5q0 141 -84 228t-239 87h-473v-628z" />
<glyph unicode="Q" horiz-adv-x="1413" d="M150 707q0 143 22.5 271t83.5 224t170 153.5t281 57.5t279.5 -57.5t169 -153.5t84 -224t22.5 -271t-22.5 -271.5t-80 -224.5t-158 -154.5t-256.5 -60.5q20 -35 64.5 -58.5t98 -40t111.5 -23.5t111 -7q49 0 109 6v-61q-29 -4 -59.5 -6.5t-59.5 -2.5q-63 0 -128.5 9.5 t-124 31t-106.5 54t-77 82.5q-164 4 -267.5 64t-162.5 159.5t-81.5 229t-22.5 274.5zM217 707q0 -123 17.5 -244t69.5 -216t148.5 -153.5t254.5 -58.5t253 58.5t147 153.5t69.5 216t17.5 244t-17.5 239.5t-69.5 207.5t-147 146.5t-253 55.5t-254.5 -55.5t-148.5 -146.5 t-69.5 -208t-17.5 -239z" />
<glyph unicode="R" horiz-adv-x="1259" d="M172 0v1393h543q94 0 166.5 -32t120 -86t72 -125t24.5 -149t-23.5 -145.5t-70 -118.5t-112 -81.5t-151.5 -37.5l400 -618h-76l-389 612h-440v-612h-64zM236 672h454q158 0 250 88t92 241q0 70 -21.5 130.5t-62.5 105.5t-101.5 70.5t-137.5 25.5h-473v-661z" />
<glyph unicode="S" horiz-adv-x="1228" d="M152 43l12 57q152 -39 256 -50t194 -11q111 0 188 28.5t123 74.5t66.5 102.5t20.5 109.5q0 86 -42 142.5t-102.5 92.5t-127 56.5t-115.5 32.5q-78 18 -158 49t-145.5 79t-107.5 114.5t-42 154.5q0 90 34 154.5t93 105.5t140 59.5t175 18.5q217 0 441 -63l-15 -58 q-76 18 -135 30.5t-108 20t-93.5 9.5t-89.5 2q-111 0 -183.5 -23.5t-115.5 -62.5t-60 -90.5t-17 -104.5q0 -84 47 -142.5t113.5 -98t138 -62t120.5 -35.5q76 -16 152 -43.5t135.5 -72t96 -109t36.5 -152.5q0 -92 -33.5 -162.5t-95 -118.5t-146.5 -72.5t-188 -24.5 q-111 0 -230.5 15t-231.5 48z" />
<glyph unicode="T" horiz-adv-x="1146" d="M131 1333v60h885v-60h-410v-1333h-65v1333h-410z" />
<glyph unicode="U" horiz-adv-x="1310" d="M172 492v901h64v-901q0 -43 3 -93.5t17 -101.5t41 -97t75 -83t119 -58.5t173 -21.5q147 0 230 48t123 118.5t49 148.5t9 140v901h64v-901q0 -264 -115 -388t-369 -124t-368.5 123.5t-114.5 388.5z" />
<glyph unicode="V" horiz-adv-x="1331" d="M111 1393h71l494 -1323h2l475 1323h68l-506 -1403h-82z" />
<glyph unicode="W" horiz-adv-x="1925" d="M111 1393h71l371 -1309h2l369 1309h80l370 -1309h2l371 1309h68l-398 -1403h-86l-366 1300h-4l-367 -1300h-86z" />
<glyph unicode="X" horiz-adv-x="1331" d="M119 0l502 735l-447 658h76l414 -602l413 602h76l-448 -658l505 -735h-77l-471 682l-469 -682h-74z" />
<glyph unicode="Y" horiz-adv-x="1269" d="M111 1393h73l451 -828h4l448 828h72l-491 -901v-492h-66v492z" />
<glyph unicode="Z" horiz-adv-x="1146" d="M113 0v51l815 1278v4h-774v60h860v-52l-809 -1278v-4h829v-59h-921z" />
<glyph unicode="[" horiz-adv-x="614" d="M152 -287v1966h352v-43h-289v-1880h289v-43h-352z" />
<glyph unicode="\" horiz-adv-x="1105" d="M145 1393h58l758 -1393h-58z" />
<glyph unicode="]" horiz-adv-x="614" d="M111 -244h288v1880h-288v43h352v-1966h-352v43z" />
<glyph unicode="^" horiz-adv-x="778" d="M152 1044l208 390h56l211 -390h-41l-199 349l-194 -349h-41z" />
<glyph unicode="_" horiz-adv-x="1024" d="M152 -123h720v-43h-720v43z" />
<glyph unicode="`" horiz-adv-x="593" d="M217 1434h70l133 -287h-47z" />
<glyph unicode="a" horiz-adv-x="1034" d="M121 262q0 150 102.5 225.5t327.5 75.5h270v148q0 135 -62.5 207.5t-226.5 72.5q-55 0 -134 -7t-197 -30l-11 54q96 18 187.5 27t165.5 9q84 0 147.5 -16t106.5 -55t64.5 -101.5t21.5 -156.5v-715h-62v102h-4q-86 -63 -167 -92.5t-187 -29.5q-154 0 -248 72.5t-94 209.5z M182 266q0 -100 73 -167.5t226 -67.5q63 0 115.5 12t95.5 30.5t75 40t54 40.5v366h-268q-111 0 -182.5 -18.5t-113.5 -52t-58.5 -80.5t-16.5 -103z" />
<glyph unicode="b" d="M152 -2v1436h61v-512h4q63 53 155.5 87.5t196.5 34.5q106 0 180 -39.5t120 -111.5t65.5 -169t19.5 -212t-20.5 -212t-66.5 -169t-120.5 -111.5t-181.5 -39.5q-102 0 -194 33.5t-156 86.5h-4l-12 -102h-47zM213 156q20 -18 54 -40t78 -40.5t96.5 -30.5t109.5 -12 q98 0 163.5 40t104.5 106.5t55.5 152.5t16.5 180t-16.5 180t-55.5 152.5t-104.5 106.5t-163.5 40q-57 0 -109.5 -12t-96.5 -30.5t-78 -40t-54 -40.5v-712z" />
<glyph unicode="c" horiz-adv-x="983" d="M131 512q0 117 24.5 214t80 168t143.5 110.5t215 39.5q94 0 168 -10t166 -33l-15 -51q-117 31 -194.5 36t-124.5 5q-111 0 -187.5 -39t-123.5 -104.5t-67.5 -152.5t-20.5 -183t20.5 -182t66.5 -152.5t122.5 -105.5t189.5 -39q47 0 125 5t194 36l15 -51q-92 -23 -166 -33 t-168 -10q-127 0 -215 39.5t-143.5 110.5t-80 168t-24.5 214z" />
<glyph unicode="d" d="M131 512q0 115 20.5 212t66.5 169t120 111.5t182 39.5q102 0 193.5 -33.5t154.5 -86.5h4v510h62v-1434h-62v102h-4q-63 -53 -155 -87.5t-197 -34.5q-109 0 -181.5 39.5t-118.5 111.5t-65.5 169t-19.5 212zM195 512q0 -94 16 -180t55 -152.5t104.5 -106.5t164.5 -40 q57 0 108 12t95 30.5t78 40t56 40.5v712q-23 18 -56.5 40t-77.5 40.5t-95 30.5t-108 12q-98 0 -164 -40t-105 -106.5t-55 -152.5t-16 -180z" />
<glyph unicode="e" d="M131 512q0 117 24.5 214t80 168t143.5 110.5t215 39.5q102 0 172 -27.5t114 -71.5t65.5 -101.5t26.5 -115.5q2 -26 3 -52q0 -30 -4 -60q-6 -54 -17 -96h-757q0 -106 20.5 -195t69.5 -154t130 -101.5t201 -36.5q88 0 166 9t156 32l10 -51q-88 -25 -162.5 -34t-175.5 -9 q-133 0 -225 39.5t-149.5 110.5t-82 168t-24.5 214zM197 565h702q12 59 12 121q0 12 -1 26q-3 76 -36.5 138.5t-101 102.5t-180.5 40q-109 0 -181.5 -34.5t-118.5 -93t-67.5 -136.5t-27.5 -164z" />
<glyph unicode="f" horiz-adv-x="706" d="M55 975v43l178 6v162q0 139 61.5 193.5t197.5 54.5q31 0 67.5 -4.5t73.5 -8.5l-8 -51q-45 6 -75 8t-61 2q-113 0 -153.5 -47t-40.5 -157v-152h291v-49h-291v-975h-62v975h-178z" />
<glyph unicode="g" horiz-adv-x="1136" d="M92 -164q0 72 49 134.5t154 119.5v4q-47 20 -63 60q-12 27 -12 57q0 13 2 26q7 44 36 89t72 80v4q-78 39 -127 109.5t-49 176.5q0 160 101 254t288 94q45 0 73.5 -6t57.5 -14h332v-43h-248v-4q51 -27 82.5 -62.5t50 -74.5t25 -76t6.5 -68q0 -82 -30 -143t-81 -103 t-119.5 -62.5t-148.5 -20.5q-37 0 -87 6t-87 22q-41 -35 -63 -80q-24 -47 -24 -89q0 -37 20 -64q20 -29 69 -31l397 -20q82 -4 135 -21.5t85 -45.5t44 -63.5t12 -74.5q0 -150 -135 -243t-428 -93q-178 0 -283.5 63.5t-105.5 202.5zM145 -156q0 -47 17.5 -88t58.5 -71.5 t110.5 -49t174.5 -18.5q100 0 187 17.5t150.5 52t100.5 87t37 122.5q0 31 -10 58.5t-37 49t-73 35.5t-116 18l-409 21q-82 -49 -136.5 -101.5t-54.5 -132.5zM215 696q0 -129 87 -206.5t241 -77.5q147 0 233 78.5t86 205.5q0 63 -22.5 118.5t-64.5 96.5t-100.5 63.5 t-131.5 22.5q-168 0 -248 -86t-80 -215z" />
<glyph unicode="h" d="M152 0v1434h61v-568h4q86 76 188.5 127t221.5 51q307 0 307 -329v-715h-62v705q0 57 -13 109t-44 91t-82 62.5t-127 23.5q-63 0 -121.5 -18.5t-109.5 -45t-92 -57t-70 -55.5v-815h-61z" />
<glyph unicode="i" horiz-adv-x="364" d="M152 0v1024h61v-1024h-61zM152 1217v217h61v-217h-61z" />
<glyph unicode="j" horiz-adv-x="446" d="M-104 -418l8 51q41 -6 67.5 -8t55.5 -2q119 0 162.5 46t43.5 161v1194h62v-1206q0 -139 -62.5 -193.5t-195.5 -54.5q-31 0 -68 3t-73 9zM233 1217v217h62v-217h-62z" />
<glyph unicode="k" horiz-adv-x="1075" d="M152 0v1434h61v-918l651 508h80l-412 -330l433 -694h-74l-404 653l-274 -211v-442h-61z" />
<glyph unicode="l" horiz-adv-x="364" d="M152 0v1434h61v-1434h-61z" />
<glyph unicode="m" horiz-adv-x="1699" d="M152 0v1024h61v-158h4q33 31 70 63t81 57.5t95 41.5t110 16q236 0 291 -194q31 33 73 67.5t90 62.5t102.5 46t111.5 18q307 0 307 -329v-715h-61v705q0 57 -13.5 109t-44 91t-82 62.5t-126.5 23.5q-55 0 -105.5 -18.5t-94.5 -46t-82 -59t-67 -58.5q4 -23 6.5 -50.5 t2.5 -56.5v-702h-62v705q0 57 -13 109t-44 92t-82 62.5t-127 22.5q-55 0 -105.5 -17.5t-92.5 -44t-77.5 -57t-64.5 -57.5v-815h-61z" />
<glyph unicode="n" d="M152 0v1024h61v-158h4q86 76 188.5 127t221.5 51q307 0 307 -329v-715h-62v705q0 57 -12 109t-43 91t-82 62.5t-129 23.5q-63 0 -121.5 -18.5t-109.5 -45t-92 -57t-70 -55.5v-815h-61z" />
<glyph unicode="o" horiz-adv-x="1126" d="M131 512q0 117 22.5 214t74 168t134 110.5t201.5 39.5t201 -39.5t133 -110.5t74.5 -168t23.5 -214t-23.5 -214t-74.5 -168t-133 -110.5t-201 -39.5t-201.5 39.5t-134 110.5t-74 168t-22.5 214zM195 512q0 -96 17 -182t60 -152.5t114 -105.5t177 -39t177 39t114 105.5 t60.5 152.5t17.5 182q0 94 -17.5 181t-60.5 153.5t-114 105.5t-177 39t-177 -39t-114 -105.5t-60 -153.5t-17 -181z" />
<glyph unicode="p" d="M152 -410v1434h61v-102h4q63 53 155.5 87.5t196.5 34.5q106 0 180 -39.5t120 -111.5t65.5 -169t19.5 -212t-20.5 -212t-66.5 -169t-120.5 -111.5t-181.5 -39.5q-102 0 -193 33.5t-155 86.5h-4v-510h-61zM213 156q20 -18 54 -40t78 -40.5t96.5 -30.5t109.5 -12 q98 0 163.5 40t104.5 106.5t55.5 152.5t16.5 180t-16.5 180t-55.5 152.5t-104.5 106.5t-163.5 40q-57 0 -109.5 -12t-96.5 -30.5t-78 -40t-54 -40.5v-712z" />
<glyph unicode="q" d="M131 512q0 115 20.5 212t66.5 169t120 111.5t182 39.5q102 0 194.5 -33.5t155.5 -86.5h4l13 102h47v-1436h-62v512h-4q-63 -53 -155 -87.5t-197 -34.5q-109 0 -181.5 39.5t-118.5 111.5t-65.5 169t-19.5 212zM195 512q0 -94 16 -180t55 -152.5t104.5 -106.5t164.5 -40 q57 0 108 12t95 30.5t78 40t56 40.5v712q-23 18 -56.5 40t-77.5 40.5t-95 30.5t-108 12q-98 0 -164 -40t-105 -106.5t-55 -152.5t-16 -180z" />
<glyph unicode="r" horiz-adv-x="757" d="M152 0v1024h61v-164h4q41 35 90 68t104.5 59.5t115 41.5t120.5 15v-59q-66 0 -130 -18.5t-121.5 -45t-104.5 -57t-78 -55.5v-809h-61z" />
<glyph unicode="s" horiz-adv-x="983" d="M121 23l12 51q57 -16 115.5 -24.5t110 -11.5t92 -4t65.5 -1q104 0 161.5 29.5t85.5 69.5t33 77t5 53q0 35 -10.5 69t-43 63.5t-94 55t-164.5 46.5q-74 14 -137 35.5t-110 54t-74 82t-27 120.5q0 117 83 186.5t257 69.5q111 0 199 -10t180 -33l-12 -51q-117 31 -216.5 36 t-148.5 5q-104 0 -160.5 -26.5t-83 -61.5t-31.5 -68.5t-5 -46.5q0 -35 10 -68.5t41 -63t90 -56.5t158 -45q182 -39 271 -101.5t89 -187.5q0 -133 -83 -209.5t-257 -76.5q-111 0 -210 10t-191 33z" />
<glyph unicode="t" horiz-adv-x="768" d="M55 975v43l178 6l9 287h53v-287h332v-49h-332v-662q0 -135 42 -207.5t171 -72.5q27 0 54.5 2t68.5 8l6 -51q-35 -4 -73 -8t-68 -4q-66 0 -115 15t-82 52t-49.5 99.5t-16.5 158.5v670h-178z" />
<glyph unicode="u" d="M152 309v715h61v-705q0 -57 12.5 -109t43 -91t81.5 -62.5t129 -23.5q61 0 120.5 18.5t110 45t92.5 57t70 55.5v815h62v-1024h-62v158h-4q-86 -76 -188 -127t-221 -51q-307 0 -307 329z" />
<glyph unicode="v" horiz-adv-x="1146" d="M127 1024h72l374 -956h5l372 956h70l-412 -1034h-71z" />
<glyph unicode="w" horiz-adv-x="1617" d="M127 1024h68l301 -956h4l280 956h60l290 -956h5l290 956h66l-324 -1034h-67l-289 936h-4l-281 -936h-67z" />
<glyph unicode="x" horiz-adv-x="1116" d="M109 0l407 532l-377 492h74l344 -444l338 444h70l-373 -489l414 -535h-76l-379 487l-371 -487h-71z" />
<glyph unicode="y" horiz-adv-x="1146" d="M127 1024h72l391 -975h4l356 975h70l-422 -1124q-63 -172 -145 -251t-201 -79q-63 0 -109 12l7 53q29 -6 48 -8t42 -2q72 0 123 36t86.5 88t60.5 113.5t45 110.5z" />
<glyph unicode="z" horiz-adv-x="962" d="M82 0v49l702 920v4h-671v51h753v-49l-700 -920v-4h715v-51h-799z" />
<glyph unicode="{" horiz-adv-x="696" d="M152 668v57q53 8 82.5 32.5t43 60.5t15.5 81t2 94q0 92 -10.5 192.5t-10.5 194.5q0 92 20.5 150.5t60.5 91.5t98.5 45t132.5 12v-37q-41 0 -85 -4t-80 -27.5t-59.5 -75.5t-23.5 -149q0 -47 3 -104t8 -117.5t8 -119t3 -105.5q0 -121 -42 -174t-113 -68v-4 q37 -8 65.5 -23.5t48 -44t30.5 -70.5t11 -103q0 -47 -3 -105.5t-8 -119t-8 -118t-3 -104.5q0 -96 23.5 -148.5t59.5 -76t80 -27.5t85 -4v-37q-74 0 -132.5 12.5t-98.5 45t-60.5 91t-20.5 150.5q0 94 10.5 194.5t10.5 192.5q0 49 -2 94.5t-15.5 81t-43 60t-82.5 33.5z" />
<glyph unicode="|" horiz-adv-x="348" d="M152 -205v1802h45v-1802h-45z" />
<glyph unicode="}" horiz-adv-x="696" d="M111 -250q41 0 85 4t79.5 27.5t59 76t23.5 148.5q0 47 -3 104.5t-8 118t-8 119t-3 105.5q0 61 11 103t30.5 70.5t48.5 44t66 23.5v4q-72 14 -114 67.5t-42 174.5q0 47 3 105.5t8 119t8 117.5t3 104q0 96 -23.5 148.5t-59 76t-79.5 27.5t-85 4v37q74 0 132 -12t98 -45 t60.5 -91t20.5 -151q0 -94 -10.5 -194.5t-10.5 -192.5q0 -49 2.5 -94t15.5 -81t43 -60.5t83 -32.5v-57q-53 -8 -83 -33t-43 -60.5t-15.5 -80.5t-2.5 -95q0 -92 10.5 -192.5t10.5 -194.5q0 -92 -20.5 -150.5t-60.5 -91t-98.5 -45t-131.5 -12.5v37z" />
<glyph unicode="~" horiz-adv-x="942" d="M106 612q70 80 115 112t98 32q37 0 89.5 -20.5t105.5 -46t100.5 -46t73.5 -20.5q29 0 60.5 17t72.5 89l25 -20q-31 -59 -64.5 -96.5t-91.5 -37.5q-31 0 -81 20.5t-104 46.5t-103 46.5t-80 20.5q-16 0 -32 -2t-36.5 -14.5t-50 -36t-72.5 -66.5z" />
<glyph unicode="&#xa1;" horiz-adv-x="364" d="M152 -410l2 983h57l2 -983h-61zM152 803v221h61v-221h-61z" />
<glyph unicode="&#xa2;" horiz-adv-x="1044" d="M152 512q0 115 29.5 211t87 167t141.5 110.5t190 43.5v185h37v-187q96 -2 166.5 -21.5t144.5 -49.5l-10 -51q-41 14 -76 27.5t-69.5 22.5t-71.5 14t-84 5v-956q47 0 84 5t71.5 14t69.5 22.5t76 29.5l10 -51q-74 -33 -144.5 -51t-166.5 -20v-187h-37v185q-106 2 -190 42.5 t-141.5 111.5t-87 167t-29.5 211zM215 512q0 -94 24.5 -179t72.5 -150.5t120 -105.5t168 -42v954q-96 -4 -168 -44t-120 -105.5t-72.5 -150.5t-24.5 -177z" />
<glyph unicode="&#xa3;" horiz-adv-x="1269" d="M152 0v57h102v623h-102v53h102v342q0 90 34 154.5t92 105.5t139 59.5t175 18.5q135 0 250 -29.5t193 -78.5l-27 -52q-109 59 -213 80t-201 21q-113 0 -186.5 -23.5t-116.5 -63.5t-60.5 -91.5t-17.5 -106.5v-336h516v-53h-516v-623h762v-57h-925z" />
<glyph unicode="&#xa4;" horiz-adv-x="1050" d="M143 928l17 16l162 -184q41 35 93 54.5t111 19.5q57 0 109.5 -19.5t93.5 -54.5l160 184l18 -16l-159 -183q47 -45 74.5 -105t27.5 -130t-26.5 -130.5t-73.5 -103.5l155 -176l-18 -18l-158 178q-41 -35 -93 -53.5t-110 -18.5q-59 0 -111.5 18.5t-92.5 53.5l-156 -178 l-19 18l156 176q-47 45 -72.5 104.5t-25.5 129.5t25.5 129t72.5 104zM229 510q0 -61 23.5 -114.5t64.5 -94.5t94.5 -64.5t114.5 -23.5t115.5 23.5t95.5 64.5t64.5 94.5t23.5 114.5t-23.5 115.5t-64.5 95.5t-95 64.5t-116 23.5q-61 0 -114.5 -23.5t-94.5 -64.5t-64.5 -95.5 t-23.5 -115.5z" />
<glyph unicode="&#xa5;" horiz-adv-x="1351" d="M152 1393h73l451 -828h4l448 828h72l-479 -879h356v-43h-368v-471h-66v471h-369v43h357z" />
<glyph unicode="&#xa6;" horiz-adv-x="348" d="M152 -205v819h45v-819h-45zM152 778v819h45v-819h-45z" />
<glyph unicode="&#xa7;" horiz-adv-x="1228" d="M168 748q0 119 56.5 200.5t156.5 124.5q-88 49 -149.5 124t-61.5 185q0 90 34 155t94 105.5t141 59t175 18.5q135 0 248 -30.5t193 -77.5l-29 -51q-109 59 -212 79.5t-200 20.5q-369 0 -368 -264q0 -88 44 -149.5t107.5 -103.5t135 -66.5t124.5 -37.5q76 -18 151 -44.5 t135.5 -70.5t97 -107.5t36.5 -151.5q0 -121 -57 -203t-158 -127q90 -49 151.5 -123t61.5 -182q0 -90 -33.5 -154.5t-94 -105.5t-141.5 -59.5t-175 -18.5q-135 0 -248 30.5t-193 77.5l27 52q109 -59 213.5 -80t200.5 -21q109 0 180.5 23.5t113.5 62.5t59 90.5t17 106.5 q4 78 -42 136t-113.5 99t-139 65.5t-118.5 35.5q-78 18 -153 44.5t-134 70.5t-96 107.5t-37 154.5zM236 750q0 -84 40.5 -139.5t98 -92.5t121 -56.5t108.5 -31.5q43 -10 99.5 -27.5t97.5 -37.5q115 45 162 129t47 168t-42 140t-102.5 93t-126 56.5t-110.5 31.5 q-45 10 -93.5 26.5t-93.5 32.5q-57 -23 -96 -55.5t-63.5 -72.5t-35.5 -83t-11 -81z" />
<glyph unicode="&#xa8;" horiz-adv-x="983" d="M193 1219v215h55v-215h-55zM735 1219v215h56v-215h-56z" />
<glyph unicode="&#xa9;" horiz-adv-x="1566" d="M61 696q0 150 56.5 281t155 227t229.5 152.5t280 56.5q150 0 282 -56.5t230.5 -152.5t154.5 -227t56 -281t-56 -280.5t-154.5 -227t-230.5 -152.5t-282 -56t-280.5 56t-229 152.5t-155 227t-56.5 280.5zM98 696q0 -141 54.5 -265t146.5 -216t217 -145.5t266 -53.5 t266.5 53.5t218.5 145.5t147 216t54 265t-54 265t-147 216.5t-218 145.5t-267 53q-141 0 -266 -53t-217 -145.5t-146.5 -216.5t-54.5 -265zM465 705q0 168 78 260t243 92q92 0 149.5 -23.5t92.5 -46.5l-16 -37q-53 35 -109 50.5t-115 15.5q-154 0 -215 -85t-61 -226 q0 -74 14.5 -135.5t47 -104.5t85 -67.5t129.5 -24.5q59 0 113.5 13t108.5 48l18 -33q-35 -23 -92 -46t-150 -23q-166 0 -243.5 96t-77.5 277z" />
<glyph unicode="&#xaa;" horiz-adv-x="612" d="M115 1012q0 76 52 112.5t163 36.5h135v74q0 63 -29.5 102t-113.5 39q-29 0 -68 -4t-98 -14l-6 26q47 10 94 14.5t82 4.5q86 0 128 -36t42 -130v-356h-31v51h-2q-43 -33 -83 -47.5t-93 -14.5q-78 0 -125 36t-47 106zM145 1014q0 -51 37 -85t113 -34q63 0 105 21.5t65 39.5 v185h-133q-111 0 -149 -36t-38 -91z" />
<glyph unicode="&#xab;" horiz-adv-x="1495" d="M152 489v46l475 294v-63l-412 -254l412 -254v-63zM868 489v46l475 294v-63l-411 -254l411 -254v-63z" />
<glyph unicode="&#xac;" horiz-adv-x="1208" d="M193 516v53h823v-284h-53v231h-770z" />
<glyph unicode="&#xad;" horiz-adv-x="1105" d="M193 516v53h720v-53h-720z" />
<glyph unicode="&#xae;" horiz-adv-x="1566" d="M61 696q0 150 56.5 281t155 227t229.5 152.5t280 56.5q150 0 282 -56.5t230.5 -152.5t154.5 -227t56 -281t-56 -280.5t-154.5 -227t-230.5 -152.5t-282 -56t-280.5 56t-229 152.5t-155 227t-56.5 280.5zM98 696q0 -141 54.5 -265t146.5 -216t217 -145.5t266 -53.5 t266.5 53.5t218.5 145.5t147 216t54 265t-54 265t-147 216.5t-218 145.5t-267 53q-141 0 -266 -53t-217 -145.5t-146.5 -216.5t-54.5 -265zM547 344v705h268q117 0 176.5 -59.5t59.5 -158.5q0 -100 -55.5 -159.5t-155.5 -63.5l231 -264h-55l-230 260h-194v-260h-45zM592 645 h215q201 0 201 186q0 80 -50.5 128.5t-142.5 48.5h-223v-363z" />
<glyph unicode="&#xaf;" horiz-adv-x="901" d="M156 1237v49h589v-49h-589z" />
<glyph unicode="&#xb0;" horiz-adv-x="532" d="M94 1188q0 72 50.5 122t121.5 50q72 0 122 -50t50 -122t-50 -122t-122 -50t-122 50t-50 122zM127 1188q0 -59 40 -99t99 -40t99.5 39.5t40.5 99.5q0 59 -40 99t-100 40q-59 0 -99 -40t-40 -99z" />
<glyph unicode="&#xb1;" horiz-adv-x="1024" d="M152 143v54h333v323h-333v53h333v334h54v-334h333v-53h-333v-323h333v-54h-720z" />
<glyph unicode="&#xb2;" horiz-adv-x="647" d="M115 1106v41q123 84 195.5 153.5t110.5 127t50 100.5t12 71q0 59 -19.5 94.5t-47 53.5t-56.5 23.5t-47 5.5q-43 0 -87 -10.5t-99 -39.5l-12 33q47 23 96 38t111 15q53 0 91 -16t62.5 -45t35.5 -65.5t11 -75.5q0 -109 -83 -223.5t-269 -243.5v-2h362v-35h-417z" />
<glyph unicode="&#xb3;" horiz-adv-x="667" d="M115 1137l14 30q41 -23 89 -36t106 -13q61 0 98 15.5t57.5 38t26.5 47t6 43.5q0 33 -9 63.5t-33 53t-62.5 35.5t-98.5 13h-80v33h78q92 0 139.5 49.5t47.5 108.5q0 20 -6.5 47t-24 49.5t-51 38.5t-88.5 16q-53 0 -96.5 -14t-80.5 -35l-12 31q41 23 91 37t104 14 q100 0 151 -48t51 -132q0 -72 -44 -115t-101 -59v-2q76 -10 121 -56.5t45 -115.5q0 -90 -56.5 -139.5t-172.5 -49.5q-55 0 -111.5 12.5t-97.5 39.5z" />
<glyph unicode="&#xb4;" horiz-adv-x="593" d="M166 1147l133 287h68l-154 -287h-47z" />
<glyph unicode="&#xb5;" d="M-186 -418l8 51q41 -6 67.5 -8t55.5 -2q61 0 102 16.5t63.5 50.5t32 83t9.5 116v1135h61v-723q0 -55 13.5 -104.5t45 -85t83 -57t124.5 -21.5q61 0 120.5 18.5t110 45t92.5 57t70 55.5v815h62v-1024h-62v158h-4q-86 -76 -188 -127t-221 -51q-193 0 -246 139v-234 q0 -90 -15.5 -150.5t-47 -97t-79.5 -52t-116 -15.5q-31 0 -68 3t-73 9z" />
<glyph unicode="&#xb6;" horiz-adv-x="1157" d="M61 999q0 92 30 165t84 124t130 78t168 27h533v-33h-168v-1360h-35v1360h-141v-756h-189q-92 0 -168 29t-130 81t-84 124.5t-30 160.5z" />
<glyph unicode="&#xb7;" horiz-adv-x="364" d="M152 401v222h61v-222h-61z" />
<glyph unicode="&#xb8;" horiz-adv-x="602" d="M137 -406l8 41q25 -8 52.5 -15t70.5 -7q45 0 74 13.5t44 34t20.5 40.5t5.5 37q0 14 -5.5 34.5t-22.5 39t-49 31t-83 12.5v145h33v-121q33 0 63.5 -8t55 -25.5t39 -44t14.5 -65.5q0 -72 -49.5 -119t-135.5 -47q-37 0 -65.5 6t-69.5 18z" />
<glyph unicode="&#xb9;" horiz-adv-x="626" d="M115 1671q61 33 123.5 69t105.5 68h25v-671h143v-31h-326v31h144v622l-203 -119z" />
<glyph unicode="&#xba;" horiz-adv-x="663" d="M115 1135q0 115 49 190.5t168 75.5q59 0 101 -20.5t67.5 -55.5t37 -84t11.5 -106q0 -117 -49 -192t-168 -75t-168 75t-49 192zM147 1135q0 -47 9.5 -91.5t31 -77t56.5 -52t88 -19.5t88 19.5t56.5 52t30.5 76.5t9 92q0 47 -9 91t-30.5 76.5t-56.5 52t-88 19.5t-88 -19.5 t-56.5 -52t-31 -76.5t-9.5 -91z" />
<glyph unicode="&#xbb;" horiz-adv-x="1495" d="M152 195v63l411 254l-411 254v63l475 -294v-46zM868 195v63l412 254l-412 254v63l475 -294v-46z" />
<glyph unicode="&#xbc;" horiz-adv-x="1638" d="M119 1262q61 33 123.5 68.5t105.5 68.5h25v-672h143v-31h-326v31h144v623l-203 -119zM459 0l758 1393h30l-758 -1393h-30zM1040 201v35q43 45 88.5 100t88.5 114.5t79.5 122t65.5 123.5h49v-460h109v-35h-109v-201h-37v201h-334zM1081 236h293v407h-2q-53 -109 -131 -212 t-160 -195z" />
<glyph unicode="&#xbd;" horiz-adv-x="1638" d="M119 1262q61 33 123.5 68.5t105.5 68.5h25v-672h143v-31h-326v31h144v623l-203 -119zM438 0l758 1393h31l-758 -1393h-31zM1102 0v41q123 84 195.5 153.5t110.5 127t50 100.5t12 72q0 59 -19 94t-47 53t-57 23.5t-47 5.5q-43 0 -87 -10.5t-99 -38.5l-12 32q47 23 96 38.5 t111 15.5q53 0 91 -16.5t62.5 -45.5t35.5 -65.5t11 -75.5q0 -109 -83 -223.5t-269 -243.5v-2h363v-35h-418z" />
<glyph unicode="&#xbe;" horiz-adv-x="1638" d="M119 727l14 31q41 -23 89 -36t106 -13q61 0 98 15t57.5 37.5t26.5 47.5t6 43q0 33 -9 63.5t-32.5 53t-62.5 36t-99 13.5h-80v33h78q92 0 139.5 49t47.5 108q0 20 -6.5 47t-23.5 49.5t-51 39t-89 16.5q-53 0 -96.5 -14.5t-79.5 -34.5l-13 30q41 23 91.5 37.5t103.5 14.5 q100 0 151.5 -48.5t51.5 -132.5q0 -72 -44 -114.5t-102 -59.5v-2q76 -10 121 -56t45 -116q0 -90 -56.5 -139t-172.5 -49q-55 0 -111.5 12t-97.5 39zM479 0l758 1393h31l-758 -1393h-31zM1040 201v35q43 45 88.5 100t88.5 114.5t79.5 122t65.5 123.5h49v-460h109v-35h-109 v-201h-37v201h-334zM1081 236h293v407h-2q-53 -109 -131 -212t-160 -195z" />
<glyph unicode="&#xbf;" horiz-adv-x="1024" d="M152 -53q0 96 30.5 160.5t76.5 109.5t100.5 78t100.5 65.5t76.5 72.5t30.5 99v62h58v-62q0 -66 -31 -111.5t-76 -81.5t-98 -68.5t-98.5 -74.5t-76 -100.5t-30.5 -144.5q0 -98 37 -154.5t88 -84t106.5 -35t92.5 -7.5q51 0 132 15.5t183 56.5l18 -53q-82 -33 -169 -55.5 t-183 -22.5q-111 0 -182.5 30.5t-113.5 79t-57 107.5t-15 119zM565 803v221h62v-221h-62z" />
<glyph unicode="&#xc0;" horiz-adv-x="1331" d="M111 0l522 1403h82l506 -1403h-72l-148 410h-667l-156 -410h-67zM350 467h637l-311 856h-2zM461 1782h69l134 -287h-48z" />
<glyph unicode="&#xc1;" horiz-adv-x="1331" d="M111 0l522 1403h82l506 -1403h-72l-148 410h-667l-156 -410h-67zM350 467h637l-311 856h-2zM651 1495l133 287h70l-156 -287h-47z" />
<glyph unicode="&#xc2;" horiz-adv-x="1331" d="M111 0l522 1403h82l506 -1403h-72l-148 410h-667l-156 -410h-67zM350 467h637l-311 856h-2zM420 1495l209 287h55l211 -287h-45l-195 236l-190 -236h-45z" />
<glyph unicode="&#xc3;" horiz-adv-x="1331" d="M111 0l522 1403h82l506 -1403h-72l-148 410h-667l-156 -410h-67zM342 1573q70 80 115 112.5t98 32.5q37 0 74 -20.5t71.5 -44t65.5 -44t57 -20.5q14 0 28.5 3t32 13.5t35 31t37.5 55.5l23 -21q-29 -59 -64.5 -96t-89.5 -37q-31 0 -64.5 19.5t-69.5 44t-69.5 44 t-62.5 19.5q-20 0 -36.5 -2t-37 -13.5t-48 -34t-70.5 -63.5zM350 467h637l-311 856h-2z" />
<glyph unicode="&#xc4;" horiz-adv-x="1331" d="M111 0l522 1403h82l506 -1403h-72l-148 410h-667l-156 -410h-67zM350 467h637l-311 856h-2zM362 1567v215h56v-215h-56zM905 1567v215h56v-215h-56z" />
<glyph unicode="&#xc5;" horiz-adv-x="1331" d="M111 0l522 1403h82l506 -1403h-72l-148 410h-667l-156 -410h-67zM350 467h637l-311 856h-2zM485 1679q0 72 50.5 122t121.5 50q72 0 122 -50t50 -122t-50 -122t-122 -50t-122 50t-50 122zM518 1679q0 -59 40 -99t99 -40t99.5 40t40.5 99t-40 99.5t-100 40.5 q-59 0 -99 -40.5t-40 -99.5z" />
<glyph unicode="&#xc6;" horiz-adv-x="1896" d="M111 0l774 1393h850v-60h-750v-577h657v-60h-657v-637h760v-59h-823v662h-373l-371 -662h-67zM573 715h349v616h-4z" />
<glyph unicode="&#xc7;" horiz-adv-x="1269" d="M152 707q0 143 22.5 271t83.5 224t169 153.5t280 57.5q111 0 223 -15.5t227 -47.5l-14 -58q-76 18 -136.5 30.5t-110.5 20t-95 9.5t-90 2q-158 0 -254.5 -55.5t-149.5 -145.5t-71.5 -206.5t-18.5 -239.5q0 -131 18.5 -252t71.5 -213t149.5 -147.5t254.5 -55.5q45 0 90 2 t95 9t110.5 19.5t136.5 30.5l14 -57q-113 -33 -224.5 -48t-217.5 -15v-101q66 -2 118 -33.5t52 -109.5q0 -72 -49.5 -119t-135.5 -47q-37 0 -65.5 6t-67.5 18l6 41q25 -8 52.5 -15t70.5 -7q45 0 74 13.5t44 34t20.5 40.5t5.5 37q0 14 -5.5 34.5t-22.5 39t-49 31t-83 12.5 v125q-164 4 -266.5 63t-160.5 157.5t-79.5 228.5t-21.5 278z" />
<glyph unicode="&#xc8;" horiz-adv-x="1146" d="M172 0v1393h813v-60h-749v-577h657v-60h-657v-637h759v-59h-823zM436 1782h70l133 -287h-47z" />
<glyph unicode="&#xc9;" horiz-adv-x="1146" d="M172 0v1393h813v-60h-749v-577h657v-60h-657v-637h759v-59h-823zM522 1495l133 287h70l-156 -287h-47z" />
<glyph unicode="&#xca;" horiz-adv-x="1146" d="M172 0v1393h813v-60h-749v-577h657v-60h-657v-637h759v-59h-823zM365 1495l208 287h56l211 -287h-45l-195 236l-190 -236h-45z" />
<glyph unicode="&#xcb;" horiz-adv-x="1146" d="M172 0v1393h813v-60h-749v-577h657v-60h-657v-637h759v-59h-823zM276 1567v215h56v-215h-56zM819 1567v215h55v-215h-55z" />
<glyph unicode="&#xcc;" horiz-adv-x="407" d="M25 1782h69l133 -287h-47zM172 0v1393h64v-1393h-64z" />
<glyph unicode="&#xcd;" horiz-adv-x="407" d="M172 0v1393h64v-1393h-64zM180 1495l133 287h70l-156 -287h-47z" />
<glyph unicode="&#xce;" horiz-adv-x="407" d="M-33 1495l209 287h55l211 -287h-45l-194 236l-191 -236h-45zM170 0v1393h63v-1393h-63z" />
<glyph unicode="&#xcf;" horiz-adv-x="407" d="M-94 1567v215h55v-215h-55zM174 0v1393h64v-1393h-64zM449 1567v215h55v-215h-55z" />
<glyph unicode="&#xd0;" horiz-adv-x="1337" d="M70 684v45h106v664h463q158 0 263.5 -53.5t168 -146.5t89 -218t26.5 -268q0 -147 -26.5 -275.5t-89 -224.5t-168 -151.5t-263.5 -55.5h-463v684h-106zM242 59h397q143 0 236.5 55.5t147.5 145.5t74.5 207t20.5 240t-20.5 236.5t-74.5 199.5t-147.5 138t-236.5 52h-397 v-604h276v-45h-276v-625z" />
<glyph unicode="&#xd1;" horiz-adv-x="1331" d="M172 0v1393h64l856 -1270h4v1270h63v-1393h-65l-854 1266h-4v-1266h-64zM369 1573q70 80 114.5 112.5t98.5 32.5q37 0 73.5 -20.5t71.5 -44t65.5 -44t57.5 -20.5q14 0 28.5 3t32 13.5t35 31t37.5 55.5l23 -21q-29 -59 -65 -96t-89 -37q-31 0 -64.5 19.5t-69.5 44 t-69.5 44t-62.5 19.5q-20 0 -37 -2t-37 -13.5t-48 -34t-71 -63.5z" />
<glyph unicode="&#xd2;" horiz-adv-x="1413" d="M152 707q0 143 22.5 271t83.5 224t169 153.5t280 57.5t279.5 -57.5t169 -153.5t84 -224t22.5 -271q0 -147 -22.5 -278.5t-84 -232t-169 -158.5t-279.5 -58t-280 58t-169 158.5t-83.5 231.5t-22.5 279zM217 707q0 -123 17.5 -243t69.5 -215t148.5 -153.5t254.5 -58.5 t254 58.5t148 153.5t69.5 215t17.5 243t-17.5 239.5t-69.5 207.5t-148 146.5t-254 55.5t-254.5 -55.5t-148.5 -146.5t-69.5 -208t-17.5 -239zM567 1782h70l133 -287h-47z" />
<glyph unicode="&#xd3;" horiz-adv-x="1413" d="M152 707q0 143 22.5 271t83.5 224t169 153.5t280 57.5t279.5 -57.5t169 -153.5t84 -224t22.5 -271q0 -147 -22.5 -278.5t-84 -232t-169 -158.5t-279.5 -58t-280 58t-169 158.5t-83.5 231.5t-22.5 279zM217 707q0 -123 17.5 -243t69.5 -215t148.5 -153.5t254.5 -58.5 t254 58.5t148 153.5t69.5 215t17.5 243t-17.5 239.5t-69.5 207.5t-148 146.5t-254 55.5t-254.5 -55.5t-148.5 -146.5t-69.5 -208t-17.5 -239zM670 1495l133 287h69l-155 -287h-47z" />
<glyph unicode="&#xd4;" horiz-adv-x="1413" d="M152 707q0 143 22.5 271t83.5 224t169 153.5t280 57.5t279.5 -57.5t169 -153.5t84 -224t22.5 -271q0 -147 -22.5 -278.5t-84 -232t-169 -158.5t-279.5 -58t-280 58t-169 158.5t-83.5 231.5t-22.5 279zM217 707q0 -123 17.5 -243t69.5 -215t148.5 -153.5t254.5 -58.5 t254 58.5t148 153.5t69.5 215t17.5 243t-17.5 239.5t-69.5 207.5t-148 146.5t-254 55.5t-254.5 -55.5t-148.5 -146.5t-69.5 -208t-17.5 -239zM471 1495l209 287h55l211 -287h-45l-194 236l-191 -236h-45z" />
<glyph unicode="&#xd5;" horiz-adv-x="1413" d="M152 707q0 143 22.5 271t83.5 224t169 153.5t280 57.5t279.5 -57.5t169 -153.5t84 -224t22.5 -271q0 -147 -22.5 -278.5t-84 -232t-169 -158.5t-279.5 -58t-280 58t-169 158.5t-83.5 231.5t-22.5 279zM217 707q0 -123 17.5 -243t69.5 -215t148.5 -153.5t254.5 -58.5 t254 58.5t148 153.5t69.5 215t17.5 243t-17.5 239.5t-69.5 207.5t-148 146.5t-254 55.5t-254.5 -55.5t-148.5 -146.5t-69.5 -208t-17.5 -239zM389 1573q70 80 115 112.5t98 32.5q37 0 74 -20.5t71.5 -44t65.5 -44t57 -20.5q14 0 28.5 3t32 13.5t35 31t38.5 55.5l22 -21 q-29 -59 -64.5 -96t-89.5 -37q-31 0 -64.5 19.5t-69.5 44t-69.5 44t-62.5 19.5q-20 0 -36.5 -2t-37 -13.5t-48 -34t-70.5 -63.5z" />
<glyph unicode="&#xd6;" horiz-adv-x="1413" d="M152 707q0 143 22.5 271t83.5 224t169 153.5t280 57.5t279.5 -57.5t169 -153.5t84 -224t22.5 -271q0 -147 -22.5 -278.5t-84 -232t-169 -158.5t-279.5 -58t-280 58t-169 158.5t-83.5 231.5t-22.5 279zM217 707q0 -123 17.5 -243t69.5 -215t148.5 -153.5t254.5 -58.5 t254 58.5t148 153.5t69.5 215t17.5 243t-17.5 239.5t-69.5 207.5t-148 146.5t-254 55.5t-254.5 -55.5t-148.5 -146.5t-69.5 -208t-17.5 -239zM416 1567v215h55v-215h-55zM958 1567v215h56v-215h-56z" />
<glyph unicode="&#xd7;" horiz-adv-x="1077" d="M207 250l293 293l-293 293l39 38l293 -292l292 292l39 -38l-292 -293l292 -293l-39 -39l-292 293l-293 -293z" />
<glyph unicode="&#xd8;" horiz-adv-x="1413" d="M96 -27l170 211q-68 100 -91 234.5t-23 288.5q0 143 22.5 271t83.5 224t169 153.5t280 57.5q147 0 245.5 -43t161.5 -117l172 215l31 -22l-178 -221q72 -98 97.5 -231.5t25.5 -286.5q0 -147 -22.5 -278.5t-84 -232t-169 -158.5t-279.5 -58q-154 0 -254.5 46t-163.5 128 l-162 -203zM217 707q0 -125 17.5 -247t76.5 -218l766 962q-55 70 -145 111t-225 41q-158 0 -254.5 -55.5t-148.5 -146.5t-69.5 -208t-17.5 -239zM330 205q55 -78 145 -123t232 -45q158 0 254 58.5t148 153.5t69.5 215t17.5 243q0 127 -19.5 248.5t-82.5 213.5z" />
<glyph unicode="&#xd9;" horiz-adv-x="1310" d="M172 492v901h64v-901q0 -43 3 -93.5t17 -101.5t41 -97t75 -83t119 -58.5t173 -21.5q147 0 230 48t123 118.5t49 148.5t9 140v901h64v-901q0 -264 -115 -388t-369 -124t-368.5 123.5t-114.5 388.5zM475 1782h70l133 -287h-47z" />
<glyph unicode="&#xda;" horiz-adv-x="1310" d="M172 492v901h64v-901q0 -43 3 -93.5t17 -101.5t41 -97t75 -83t119 -58.5t173 -21.5q147 0 230 48t123 118.5t49 148.5t9 140v901h64v-901q0 -264 -115 -388t-369 -124t-368.5 123.5t-114.5 388.5zM621 1495l133 287h69l-155 -287h-47z" />
<glyph unicode="&#xdb;" horiz-adv-x="1310" d="M172 492v901h64v-901q0 -43 3 -93.5t17 -101.5t41 -97t75 -83t119 -58.5t173 -21.5q147 0 230 48t123 118.5t49 148.5t9 140v901h64v-901q0 -264 -115 -388t-369 -124t-368.5 123.5t-114.5 388.5zM418 1495l209 287h55l211 -287h-45l-195 236l-190 -236h-45z" />
<glyph unicode="&#xdc;" horiz-adv-x="1310" d="M172 492v901h64v-901q0 -43 3 -93.5t17 -101.5t41 -97t75 -83t119 -58.5t173 -21.5q147 0 230 48t123 118.5t49 148.5t9 140v901h64v-901q0 -264 -115 -388t-369 -124t-368.5 123.5t-114.5 388.5zM354 1567v215h56v-215h-56zM897 1567v215h55v-215h-55z" />
<glyph unicode="&#xdd;" horiz-adv-x="1269" d="M111 1393h73l451 -828h4l448 828h72l-491 -901v-492h-66v492zM625 1495l133 287h69l-155 -287h-47z" />
<glyph unicode="&#xde;" horiz-adv-x="1228" d="M172 0v1393h64v-312h475q94 0 166.5 -29.5t122 -79.5t74 -119t24.5 -146q0 -170 -97.5 -272.5t-289.5 -102.5h-475v-332h-64zM236 391h471q156 0 240.5 81t84.5 235q0 139 -85 227t-240 88h-471v-631z" />
<glyph unicode="&#xdf;" horiz-adv-x="1320" d="M55 975v43l178 6q0 121 35 201t93.5 126t134 64.5t159.5 18.5q193 0 287 -84t94 -224q0 -100 -43 -160.5t-95 -101.5t-95 -71.5t-43 -67.5q0 -18 11 -33.5t26.5 -27t34 -18.5t32.5 -13q174 -55 255 -131t81 -201q0 -90 -32.5 -150.5t-85 -99.5t-119 -55t-136.5 -16 q-78 0 -141 11t-123 29l10 52q66 -23 130.5 -32t115.5 -9q115 0 179.5 34.5t95 79.5t37 90.5t6.5 63.5q0 82 -39 134t-90.5 85t-101.5 48.5t-75 25.5q-78 29 -105.5 57.5t-27.5 69.5q0 47 42 79.5t93.5 72.5t93.5 96.5t42 148.5q0 86 -35 138.5t-84 80t-103.5 36.5t-95.5 9 q-123 0 -194.5 -38.5t-107.5 -99t-45 -130.5t-9 -131v-981h-62v975h-178z" />
<glyph unicode="&#xe0;" horiz-adv-x="1034" d="M121 262q0 150 102.5 225.5t327.5 75.5h270v148q0 135 -62.5 207.5t-226.5 72.5q-55 0 -134 -7t-197 -30l-11 54q96 18 187.5 27t165.5 9q84 0 147.5 -16t106.5 -55t64.5 -101.5t21.5 -156.5v-715h-62v102h-4q-86 -63 -167 -92.5t-187 -29.5q-154 0 -248 72.5t-94 209.5z M182 266q0 -100 73 -167.5t226 -67.5q63 0 115.5 12t95.5 30.5t75 40t54 40.5v366h-268q-111 0 -182.5 -18.5t-113.5 -52t-58.5 -80.5t-16.5 -103zM391 1434h70l133 -287h-47z" />
<glyph unicode="&#xe1;" horiz-adv-x="1034" d="M121 262q0 150 102.5 225.5t327.5 75.5h270v148q0 135 -62.5 207.5t-226.5 72.5q-55 0 -134 -7t-197 -30l-11 54q96 18 187.5 27t165.5 9q84 0 147.5 -16t106.5 -55t64.5 -101.5t21.5 -156.5v-715h-62v102h-4q-86 -63 -167 -92.5t-187 -29.5q-154 0 -248 72.5t-94 209.5z M182 266q0 -100 73 -167.5t226 -67.5q63 0 115.5 12t95.5 30.5t75 40t54 40.5v366h-268q-111 0 -182.5 -18.5t-113.5 -52t-58.5 -80.5t-16.5 -103zM506 1147l133 287h68l-154 -287h-47z" />
<glyph unicode="&#xe2;" horiz-adv-x="1034" d="M121 262q0 150 102.5 225.5t327.5 75.5h270v148q0 135 -62.5 207.5t-226.5 72.5q-55 0 -134 -7t-197 -30l-11 54q96 18 187.5 27t165.5 9q84 0 147.5 -16t106.5 -55t64.5 -101.5t21.5 -156.5v-715h-62v102h-4q-86 -63 -167 -92.5t-187 -29.5q-154 0 -248 72.5t-94 209.5z M182 266q0 -100 73 -167.5t226 -67.5q63 0 115.5 12t95.5 30.5t75 40t54 40.5v366h-268q-111 0 -182.5 -18.5t-113.5 -52t-58.5 -80.5t-16.5 -103zM316 1147l208 287h56l211 -287h-45l-195 235l-190 -235h-45z" />
<glyph unicode="&#xe3;" horiz-adv-x="1034" d="M121 262q0 150 102.5 225.5t327.5 75.5h270v148q0 135 -62.5 207.5t-226.5 72.5q-55 0 -134 -7t-197 -30l-11 54q96 18 187.5 27t165.5 9q84 0 147.5 -16t106.5 -55t64.5 -101.5t21.5 -156.5v-715h-62v102h-4q-86 -63 -167 -92.5t-187 -29.5q-154 0 -248 72.5t-94 209.5z M182 266q0 -100 73 -167.5t226 -67.5q63 0 115.5 12t95.5 30.5t75 40t54 40.5v366h-268q-111 0 -182.5 -18.5t-113.5 -52t-58.5 -80.5t-16.5 -103zM227 1225q70 80 115 112.5t98 32.5q37 0 74 -20.5t72 -44t65.5 -44t57.5 -20.5q14 0 28.5 3t32 13.5t34.5 31t38 54.5l22 -20 q-29 -59 -64.5 -96t-88.5 -37q-31 0 -65 19.5t-69.5 44t-69.5 44t-63 19.5q-20 0 -36.5 -2t-37 -13.5t-48 -34t-70.5 -63.5z" />
<glyph unicode="&#xe4;" horiz-adv-x="1034" d="M121 262q0 150 102.5 225.5t327.5 75.5h270v148q0 135 -62.5 207.5t-226.5 72.5q-55 0 -134 -7t-197 -30l-11 54q96 18 187.5 27t165.5 9q84 0 147.5 -16t106.5 -55t64.5 -101.5t21.5 -156.5v-715h-62v102h-4q-86 -63 -167 -92.5t-187 -29.5q-154 0 -248 72.5t-94 209.5z M182 266q0 -100 73 -167.5t226 -67.5q63 0 115.5 12t95.5 30.5t75 40t54 40.5v366h-268q-111 0 -182.5 -18.5t-113.5 -52t-58.5 -80.5t-16.5 -103zM252 1219v215h55v-215h-55zM794 1219v215h56v-215h-56z" />
<glyph unicode="&#xe5;" horiz-adv-x="1034" d="M121 262q0 150 102.5 225.5t327.5 75.5h270v148q0 135 -62.5 207.5t-226.5 72.5q-55 0 -134 -7t-197 -30l-11 54q96 18 187.5 27t165.5 9q84 0 147.5 -16t106.5 -55t64.5 -101.5t21.5 -156.5v-715h-62v102h-4q-86 -63 -167 -92.5t-187 -29.5q-154 0 -248 72.5t-94 209.5z M182 266q0 -100 73 -167.5t226 -67.5q63 0 115.5 12t95.5 30.5t75 40t54 40.5v366h-268q-111 0 -182.5 -18.5t-113.5 -52t-58.5 -80.5t-16.5 -103zM381 1331q0 72 50.5 122t121.5 50q72 0 122 -50t50 -122t-50 -122t-122 -50t-122 50t-50 122zM414 1331q0 -59 40 -99t99 -40 t99 40t40 99t-39.5 99t-99.5 40q-59 0 -99 -40t-40 -99z" />
<glyph unicode="&#xe6;" horiz-adv-x="1775" d="M119 262q0 150 103.5 225.5t326.5 75.5h272v148q0 66 -14 117t-47 86.5t-89.5 55t-138.5 19.5q-55 0 -134 -6t-197 -29l-11 54q96 18 187.5 27t165.5 9q158 0 242.5 -67.5t84.5 -214.5q41 129 140.5 205.5t273.5 76.5q143 0 225 -50t118 -128t36 -170t-18 -178h-758 q0 -109 21.5 -198t70.5 -153.5t130 -99t200 -34.5q88 0 165.5 8t155.5 33l10 -54q-88 -23 -162.5 -31.5t-174.5 -8.5q-154 0 -253.5 50t-152.5 142q-102 -111 -216 -151.5t-218 -40.5q-154 0 -249 71.5t-95 210.5zM180 266q0 -102 73.5 -168.5t227.5 -66.5q123 0 224.5 48 t175.5 124q-59 121 -60 315h-268q-111 0 -182.5 -18.5t-113.5 -51t-59.5 -79.5t-17.5 -103zM887 563h702q14 76 10 153t-37.5 138t-101 100t-178.5 39q-109 0 -181.5 -34.5t-118.5 -93t-67.5 -137.5t-27.5 -165z" />
<glyph unicode="&#xe7;" horiz-adv-x="983" d="M131 512q0 117 24.5 214t80 168t143.5 110.5t215 39.5q94 0 168 -10t166 -33l-15 -51q-117 31 -194.5 36t-124.5 5q-113 0 -188.5 -39t-122.5 -104.5t-67.5 -152.5t-20.5 -183t20.5 -182t67.5 -152.5t122.5 -105.5t188.5 -39q47 0 125 5t194 36l15 -51q-92 -23 -166 -33 t-166 -10v-101q33 0 63.5 -8t55 -25.5t39 -44t14.5 -65.5q0 -72 -50 -119t-136 -47q-37 0 -66 6t-67 18l8 41q25 -8 52.5 -15t70.5 -7q45 0 73.5 13.5t44 34t20.5 40.5t5 37q0 14 -5 34.5t-22.5 39t-49.5 31t-83 12.5v127q-119 4 -201.5 45t-134 111.5t-74 165.5t-22.5 208z " />
<glyph unicode="&#xe8;" d="M131 512q0 117 24.5 214t80 168t143.5 110.5t215 39.5q102 0 172 -27.5t114 -71.5t65.5 -101.5t26.5 -115.5t-1 -112.5t-17 -95.5h-757q0 -106 20.5 -195t69.5 -154t130 -101.5t201 -36.5q88 0 166 9t156 32l10 -51q-88 -25 -162.5 -34t-175.5 -9q-133 0 -225 39.5 t-149.5 110.5t-82 168t-24.5 214zM197 565h702q14 72 11 147.5t-36.5 138t-101 102.5t-180.5 40q-109 0 -181.5 -34.5t-118.5 -93t-67.5 -136.5t-27.5 -164zM412 1434h70l133 -287h-47z" />
<glyph unicode="&#xe9;" d="M131 512q0 117 24.5 214t80 168t143.5 110.5t215 39.5q102 0 172 -27.5t114 -71.5t65.5 -101.5t26.5 -115.5t-1 -112.5t-17 -95.5h-757q0 -106 20.5 -195t69.5 -154t130 -101.5t201 -36.5q88 0 166 9t156 32l10 -51q-88 -25 -162.5 -34t-175.5 -9q-133 0 -225 39.5 t-149.5 110.5t-82 168t-24.5 214zM197 565h702q14 72 11 147.5t-36.5 138t-101 102.5t-180.5 40q-109 0 -181.5 -34.5t-118.5 -93t-67.5 -136.5t-27.5 -164zM588 1147l133 287h68l-154 -287h-47z" />
<glyph unicode="&#xea;" d="M131 512q0 117 24.5 214t80 168t143.5 110.5t215 39.5q102 0 172 -27.5t114 -71.5t65.5 -101.5t26.5 -115.5t-1 -112.5t-17 -95.5h-757q0 -106 20.5 -195t69.5 -154t130 -101.5t201 -36.5q88 0 166 9t156 32l10 -51q-88 -25 -162.5 -34t-175.5 -9q-133 0 -225 39.5 t-149.5 110.5t-82 168t-24.5 214zM197 565h702q14 72 11 147.5t-36.5 138t-101 102.5t-180.5 40q-109 0 -181.5 -34.5t-118.5 -93t-67.5 -136.5t-27.5 -164zM355 1147l208 287h56l211 -287h-45l-195 235l-190 -235h-45z" />
<glyph unicode="&#xeb;" d="M131 512q0 117 24.5 214t80 168t143.5 110.5t215 39.5q102 0 172 -27.5t114 -71.5t65.5 -101.5t26.5 -115.5t-1 -112.5t-17 -95.5h-757q0 -106 20.5 -195t69.5 -154t130 -101.5t201 -36.5q88 0 166 9t156 32l10 -51q-88 -25 -162.5 -34t-175.5 -9q-133 0 -225 39.5 t-149.5 110.5t-82 168t-24.5 214zM197 565h702q14 72 11 147.5t-36.5 138t-101 102.5t-180.5 40q-109 0 -181.5 -34.5t-118.5 -93t-67.5 -136.5t-27.5 -164zM283 1219v215h55v-215h-55zM825 1219v215h56v-215h-56z" />
<glyph unicode="&#xec;" horiz-adv-x="364" d="M4 1434h70l133 -287h-47zM152 0v1024h61v-1024h-61z" />
<glyph unicode="&#xed;" horiz-adv-x="364" d="M152 0v1024h61v-1024h-61zM164 1147l133 287h68l-154 -287h-47z" />
<glyph unicode="&#xee;" horiz-adv-x="364" d="M-55 1147l209 287h55l211 -287h-45l-195 235l-190 -235h-45zM152 0v1024h61v-1024h-61z" />
<glyph unicode="&#xef;" horiz-adv-x="364" d="M-117 1219v215h56v-215h-56zM154 0v1024h61v-1024h-61zM426 1219v215h55v-215h-55z" />
<glyph unicode="&#xf0;" horiz-adv-x="1126" d="M129 451q0 231 110.5 356t311.5 125q117 0 214 -65.5t165 -170.5l4 2q-4 43 -10 108.5t-22.5 139.5t-48.5 146.5t-85 132.5l-178 -178l-29 30l174 174q-51 47 -121.5 77t-164.5 30q-76 0 -135.5 -10.5t-131.5 -32.5l-10 49q31 10 59.5 19.5t61.5 15.5t71.5 10t88.5 4 q92 0 175 -27.5t150 -91.5l162 160l29 -29l-160 -157q86 -92 136 -252t50 -402q0 -121 -17 -234.5t-66.5 -202.5t-137.5 -143t-227 -54q-86 0 -163 31.5t-133 93t-89 148.5t-33 198zM195 451q0 -102 29.5 -180t78.5 -131.5t113.5 -80t136.5 -26.5q98 0 165.5 33.5t110.5 93 t64.5 139.5t30.5 170q6 76 6 162q-63 102 -158.5 172.5t-206.5 70.5q-115 0 -186.5 -40.5t-112.5 -103t-56 -137.5t-15 -142z" />
<glyph unicode="&#xf1;" d="M152 0v1024h61v-158h4q86 76 188.5 127t221.5 51q307 0 307 -329v-715h-62v705q0 57 -12 109t-43 91t-82 62.5t-129 23.5q-63 0 -121.5 -18.5t-109.5 -45t-92 -57t-70 -55.5v-815h-61zM231 1225q70 80 115 112.5t98 32.5q37 0 74 -20.5t72 -44t65.5 -44t57.5 -20.5 q14 0 28.5 3t32 13.5t34.5 31t38 54.5l22 -20q-29 -59 -64.5 -96t-88.5 -37q-31 0 -65 19.5t-69.5 44t-69.5 44t-63 19.5q-20 0 -36.5 -2t-37 -13.5t-48 -34t-70.5 -63.5z" />
<glyph unicode="&#xf2;" horiz-adv-x="1126" d="M131 512q0 117 22.5 214t74 168t134 110.5t201.5 39.5t201 -39.5t133 -110.5t74.5 -168t23.5 -214t-23.5 -214t-74.5 -168t-133 -110.5t-201 -39.5t-201.5 39.5t-134 110.5t-74 168t-22.5 214zM195 512q0 -96 17 -182t60 -152.5t114 -105.5t177 -39t177 39t114 105.5 t60.5 152.5t17.5 182q0 94 -17.5 181t-60.5 153.5t-114 105.5t-177 39t-177 -39t-114 -105.5t-60 -153.5t-17 -181zM399 1434h70l133 -287h-47z" />
<glyph unicode="&#xf3;" horiz-adv-x="1126" d="M131 512q0 117 22.5 214t74 168t134 110.5t201.5 39.5t201 -39.5t133 -110.5t74.5 -168t23.5 -214t-23.5 -214t-74.5 -168t-133 -110.5t-201 -39.5t-201.5 39.5t-134 110.5t-74 168t-22.5 214zM195 512q0 -96 17 -182t60 -152.5t114 -105.5t177 -39t177 39t114 105.5 t60.5 152.5t17.5 182q0 94 -17.5 181t-60.5 153.5t-114 105.5t-177 39t-177 -39t-114 -105.5t-60 -153.5t-17 -181zM541 1147l133 287h68l-154 -287h-47z" />
<glyph unicode="&#xf4;" horiz-adv-x="1126" d="M131 512q0 117 22.5 214t74 168t134 110.5t201.5 39.5t201 -39.5t133 -110.5t74.5 -168t23.5 -214t-23.5 -214t-74.5 -168t-133 -110.5t-201 -39.5t-201.5 39.5t-134 110.5t-74 168t-22.5 214zM195 512q0 -96 17 -182t60 -152.5t114 -105.5t177 -39t177 39t114 105.5 t60.5 152.5t17.5 182q0 94 -17.5 181t-60.5 153.5t-114 105.5t-177 39t-177 -39t-114 -105.5t-60 -153.5t-17 -181zM326 1147l208 287h56l211 -287h-45l-195 235l-190 -235h-45z" />
<glyph unicode="&#xf5;" horiz-adv-x="1126" d="M131 512q0 117 22.5 214t74 168t134 110.5t201.5 39.5t201 -39.5t133 -110.5t74.5 -168t23.5 -214t-23.5 -214t-74.5 -168t-133 -110.5t-201 -39.5t-201.5 39.5t-134 110.5t-74 168t-22.5 214zM195 512q0 -96 17 -182t60 -152.5t114 -105.5t177 -39t177 39t114 105.5 t60.5 152.5t17.5 182q0 94 -17.5 181t-60.5 153.5t-114 105.5t-177 39t-177 -39t-114 -105.5t-60 -153.5t-17 -181zM249 1225q70 80 115 112.5t98 32.5q37 0 74 -20.5t72 -44t65.5 -44t57.5 -20.5q14 0 28.5 3t32 13.5t34.5 31t38 54.5l22 -20q-29 -59 -64.5 -96t-88.5 -37 q-31 0 -65 19.5t-69.5 44t-69.5 44t-63 19.5q-20 0 -36.5 -2t-37 -13.5t-48 -34t-70.5 -63.5z" />
<glyph unicode="&#xf6;" horiz-adv-x="1126" d="M131 512q0 117 22.5 214t74 168t134 110.5t201.5 39.5t201 -39.5t133 -110.5t74.5 -168t23.5 -214t-23.5 -214t-74.5 -168t-133 -110.5t-201 -39.5t-201.5 39.5t-134 110.5t-74 168t-22.5 214zM195 512q0 -96 17 -182t60 -152.5t114 -105.5t177 -39t177 39t114 105.5 t60.5 152.5t17.5 182q0 94 -17.5 181t-60.5 153.5t-114 105.5t-177 39t-177 -39t-114 -105.5t-60 -153.5t-17 -181zM265 1219v215h55v-215h-55zM807 1219v215h56v-215h-56z" />
<glyph unicode="&#xf7;" horiz-adv-x="1024" d="M152 520v45h720v-45h-720zM483 123v215h58v-215h-58zM483 748v215h58v-215h-58z" />
<glyph unicode="&#xf8;" horiz-adv-x="1126" d="M76 -27l143 166q-47 72 -67.5 166t-20.5 207q0 117 22.5 214t74 168t134 110.5t201.5 39.5q111 0 188.5 -34.5t127.5 -98.5l141 164l31 -22l-146 -168q47 -72 68.5 -166t21.5 -207q0 -117 -23.5 -214t-74.5 -168t-133 -110.5t-201 -39.5q-111 0 -188.5 34.5t-128.5 98.5 l-140 -162zM195 522q0 -90 15 -176t56 -151l574 669q-43 57 -111 92t-166 35q-104 0 -175 -39t-114 -103.5t-61 -149.5t-18 -177zM287 160q41 -59 108.5 -93t167.5 -34q106 0 177 39t114 105.5t60.5 152.5t17.5 180q0 90 -16.5 172t-55.5 147z" />
<glyph unicode="&#xf9;" d="M152 309v715h61v-705q0 -57 12.5 -109t43 -91t81.5 -62.5t129 -23.5q61 0 120.5 18.5t110 45t92.5 57t70 55.5v815h62v-1024h-62v158h-4q-86 -76 -188 -127t-221 -51q-307 0 -307 329zM348 1434h70l133 -287h-47z" />
<glyph unicode="&#xfa;" d="M152 309v715h61v-705q0 -57 12.5 -109t43 -91t81.5 -62.5t129 -23.5q61 0 120.5 18.5t110 45t92.5 57t70 55.5v815h62v-1024h-62v158h-4q-86 -76 -188 -127t-221 -51q-307 0 -307 329zM520 1147l133 287h68l-154 -287h-47z" />
<glyph unicode="&#xfb;" d="M152 309v715h61v-705q0 -57 12.5 -109t43 -91t81.5 -62.5t129 -23.5q61 0 120.5 18.5t110 45t92.5 57t70 55.5v815h62v-1024h-62v158h-4q-86 -76 -188 -127t-221 -51q-307 0 -307 329zM308 1147l208 287h56l211 -287h-45l-195 235l-190 -235h-45z" />
<glyph unicode="&#xfc;" d="M152 309v715h61v-705q0 -57 12.5 -109t43 -91t81.5 -62.5t129 -23.5q61 0 120.5 18.5t110 45t92.5 57t70 55.5v815h62v-1024h-62v158h-4q-86 -76 -188 -127t-221 -51q-307 0 -307 329zM244 1219v215h55v-215h-55zM786 1219v215h56v-215h-56z" />
<glyph unicode="&#xfd;" horiz-adv-x="1146" d="M127 1024h72l391 -975h4l356 975h70l-422 -1124q-63 -172 -145 -251t-201 -79q-63 0 -109 12l7 53q29 -6 48 -8t42 -2q72 0 123 36t86.5 88t60.5 113.5t45 110.5zM559 1147l133 287h68l-154 -287h-47z" />
<glyph unicode="&#xfe;" d="M152 -410v1844h61v-512h4q63 53 155.5 87.5t196.5 34.5q106 0 180 -39.5t120 -111.5t65.5 -169t19.5 -212t-20.5 -212t-66.5 -169t-120.5 -111.5t-181.5 -39.5q-102 0 -193 33.5t-155 86.5h-4v-510h-61zM213 156q20 -18 54 -40t78 -40.5t96.5 -30.5t109.5 -12 q98 0 163.5 40t104.5 106.5t55.5 152.5t16.5 180t-16.5 180t-55.5 152.5t-104.5 106.5t-163.5 40q-57 0 -109.5 -12t-96.5 -30.5t-78 -40t-54 -40.5v-712z" />
<glyph unicode="&#xff;" horiz-adv-x="1146" d="M127 1024h72l391 -975h4l356 975h70l-422 -1124q-63 -172 -145 -251t-201 -79q-63 0 -109 12l7 53q29 -6 48 -8t42 -2q72 0 123 36t86.5 88t60.5 113.5t45 110.5zM283 1219v215h55v-215h-55zM825 1219v215h56v-215h-56z" />
<glyph unicode="&#x152;" horiz-adv-x="2172" d="M150 707q0 143 22.5 271t83.5 224t170 153.5t281 57.5q113 0 194.5 -24.5t140 -68.5t96.5 -107.5t60 -141.5v322h813v-60h-749v-579h657v-58h-657v-639h759v-57h-823v332q-23 -82 -60.5 -146.5t-96 -110.5t-140.5 -70.5t-194 -24.5q-172 0 -281 58t-170 158.5 t-83.5 231.5t-22.5 279zM217 707q0 -123 17.5 -244t69.5 -216t148.5 -153.5t254.5 -58.5t253 59.5t147 155.5t69.5 221t17.5 254q0 121 -18.5 234.5t-70.5 201.5t-148 141.5t-250 53.5q-158 0 -254.5 -55.5t-148.5 -146.5t-69.5 -208t-17.5 -239z" />
<glyph unicode="&#x153;" horiz-adv-x="1886" d="M131 512q0 117 22.5 214t74 168t134 110.5t201.5 39.5q178 0 273.5 -91t128.5 -240q33 150 136 240.5t294 90.5q102 0 171.5 -27.5t113.5 -71.5t65.5 -101.5t27 -115.5t-1 -112.5t-16.5 -95.5h-758q0 -106 21.5 -195t70 -154t129 -101.5t201.5 -36.5q88 0 166 9t156 32 l10 -51q-88 -25 -163 -34t-175 -9q-201 0 -307.5 91t-140.5 240q-33 -150 -128.5 -240.5t-273.5 -90.5q-119 0 -201.5 39.5t-134 110.5t-74 168t-22.5 214zM195 512q0 -96 17 -182t60 -152.5t114 -105.5t177 -39q104 0 175 38t114 103.5t61.5 152.5t18.5 185q0 94 -17.5 181 t-60.5 153.5t-114 105.5t-177 39t-177 -39t-114 -105.5t-60 -153.5t-17 -181zM997 565h703q14 72 11 147.5t-37 138t-101 102.5t-180 40q-109 0 -181.5 -34.5t-118.5 -93t-67.5 -136.5t-28.5 -164z" />
<glyph unicode="&#x178;" horiz-adv-x="1269" d="M111 1393h73l451 -828h4l448 828h72l-491 -901v-492h-66v492zM350 1567v215h56v-215h-56zM893 1567v215h55v-215h-55z" />
<glyph unicode="&#x2c6;" horiz-adv-x="860" d="M193 1147l208 287h56l211 -287h-45l-195 235l-190 -235h-45z" />
<glyph unicode="&#x2dc;" horiz-adv-x="921" d="M145 1225q70 80 115 112.5t98 32.5q37 0 74 -20.5t72 -44t65.5 -44t57.5 -20.5q14 0 28.5 3t32 13.5t34.5 31t38 54.5l22 -20q-29 -59 -64.5 -96t-88.5 -37q-31 0 -65 19.5t-69.5 44t-69.5 44t-63 19.5q-20 0 -36.5 -2t-37 -13.5t-48 -34t-70.5 -63.5z" />
<glyph unicode="&#x2000;" horiz-adv-x="925" />
<glyph unicode="&#x2001;" horiz-adv-x="1851" />
<glyph unicode="&#x2002;" horiz-adv-x="925" />
<glyph unicode="&#x2003;" horiz-adv-x="1851" />
<glyph unicode="&#x2004;" horiz-adv-x="617" />
<glyph unicode="&#x2005;" horiz-adv-x="462" />
<glyph unicode="&#x2006;" horiz-adv-x="308" />
<glyph unicode="&#x2007;" horiz-adv-x="308" />
<glyph unicode="&#x2008;" horiz-adv-x="231" />
<glyph unicode="&#x2009;" horiz-adv-x="370" />
<glyph unicode="&#x200a;" horiz-adv-x="102" />
<glyph unicode="&#x2010;" horiz-adv-x="1024" d="M152 516v53h720v-53h-720z" />
<glyph unicode="&#x2011;" horiz-adv-x="1024" d="M152 516v53h720v-53h-720z" />
<glyph unicode="&#x2012;" horiz-adv-x="1024" d="M152 516v53h720v-53h-720z" />
<glyph unicode="&#x2013;" horiz-adv-x="1228" d="M152 516v53h925v-53h-925z" />
<glyph unicode="&#x2014;" horiz-adv-x="1433" d="M152 516v53h1130v-53h-1130z" />
<glyph unicode="&#x2018;" horiz-adv-x="364" d="M150 905v221l38 267h31l-24 -267h16v-221h-61z" />
<glyph unicode="&#x2019;" horiz-adv-x="364" d="M143 905l25 266h-18v222h61v-222l-37 -266h-31z" />
<glyph unicode="&#x201a;" horiz-adv-x="364" d="M143 -266l25 266h-18v219h61v-219l-37 -266h-31z" />
<glyph unicode="&#x201c;" horiz-adv-x="815" d="M150 905v221l38 267h31l-24 -267h16v-221h-61zM600 905v221l39 267h31l-25 -267h17v-221h-62z" />
<glyph unicode="&#x201d;" horiz-adv-x="815" d="M143 905l25 266h-18v222h61v-222l-37 -266h-31zM594 905l24 266h-18v222h62v-222l-37 -266h-31z" />
<glyph unicode="&#x201e;" horiz-adv-x="815" d="M143 -266l25 266h-18v219h61v-219l-37 -266h-31zM594 -266l24 266h-18v219h62v-219l-37 -266h-31z" />
<glyph unicode="&#x2022;" horiz-adv-x="471" d="M152 401v222h61v-222h-61z" />
<glyph unicode="&#x2026;" horiz-adv-x="1265" d="M193 0v221h61v-221h-61zM602 0v221h62v-221h-62zM1012 0v221h61v-221h-61z" />
<glyph unicode="&#x202f;" horiz-adv-x="370" />
<glyph unicode="&#x2039;" horiz-adv-x="778" d="M152 489v46l475 294v-63l-412 -254l412 -254v-63z" />
<glyph unicode="&#x203a;" horiz-adv-x="778" d="M152 195v63l411 254l-411 254v63l475 -294v-46z" />
<glyph unicode="&#x205f;" horiz-adv-x="462" />
<glyph unicode="&#x20ac;" horiz-adv-x="1433" d="M152 530v45h147q-4 31 -4 64v68v55t2 55h-145v45h151q12 117 50 217.5t103.5 174t163 116.5t230.5 43q98 0 174 -19.5t133 -47t96 -57t66 -50.5l-25 -53q-92 78 -196.5 123t-239.5 45q-121 0 -208 -40t-144 -107.5t-89 -156.5t-44 -188h465l-13 -45h-460 q-4 -29 -4.5 -55.5t-0.5 -54.5q0 -68 7 -132h471l-13 -45h-450q14 -98 47 -187t90 -156.5t142 -107.5t204 -40q135 0 239.5 45t196.5 123l25 -53q-27 -20 -66 -50t-96 -58t-133 -47t-174 -19q-131 0 -226.5 43t-161 116.5t-104.5 174t-53 216.5h-153z" />
<glyph unicode="&#x2122;" horiz-adv-x="1638" d="M96 1352v41h510v-41h-233v-664h-43v664h-234zM825 688v705h54l280 -635h2l289 635h55v-705h-45v608h-4l-278 -608h-39l-269 608h-4v-608h-41z" />
<glyph unicode="&#x25fc;" horiz-adv-x="1024" d="M0 0v1024h1024v-1024h-1024z" />
</font>
</defs>
</svg>
